<svg width="44" height="44" viewBox="0 0 44 44" fill="none" xmlns="http://www.w3.org/2000/svg">
<path d="M37.7518 37.5533C39.6779 35.6077 41.177 33.3829 42.249 30.8789C43.321 28.3749 43.8571 25.7863 43.8571 23.1131C43.8571 20.4223 43.3386 17.7404 42.3016 15.0671C41.2646 12.3939 39.6011 9.91325 37.3111 7.62523C35.4609 5.77109 33.1145 4.30217 30.272 3.21848C27.4314 2.13284 24.3428 1.34001 21.0061 0.839994C17.6694 0.339978 14.2121 0.0646768 10.6342 0.0140915C7.05624 -0.0364938 3.60963 0.049113 0.29435 0.27091C0.0550423 3.48113 -0.0383453 6.86645 0.014183 10.4269C0.0667152 13.9912 0.355637 17.4466 0.880947 20.793C1.40625 24.1394 2.20881 27.2446 3.28862 30.1085C4.36842 32.9724 5.82079 35.3168 7.64576 37.1418C9.88707 39.422 12.3054 41.0835 14.9009 42.1264C17.4943 43.1673 20.0985 43.6877 22.7134 43.6877C25.4528 43.6877 28.162 43.1517 30.8411 42.0797C33.5201 41.0076 35.8237 39.4988 37.7518 37.5533ZM32.8343 37.7605C31.3109 38.7761 29.6581 39.5309 27.876 40.0251C26.0938 40.5213 24.3681 40.7693 22.6988 40.7693C20.4361 40.7693 18.1986 40.3286 15.9865 39.4473C13.7705 38.5659 11.6848 37.1097 9.72948 35.0785C8.85981 34.2029 7.97942 32.9743 7.08834 31.3925C6.19727 29.8108 5.42487 27.7446 4.77115 25.1939C4.11744 22.6432 3.62228 19.5546 3.28569 15.928C2.9491 12.3015 2.86544 7.9842 3.03471 2.97625C5.41806 2.87897 8.1234 2.86146 11.1507 2.92372C14.1781 2.98598 17.2035 3.24474 20.2269 3.70001C23.2523 4.15722 26.0929 4.85374 28.7486 5.78957C31.4063 6.72345 33.5299 7.98614 35.1194 9.57763C37.2712 11.7275 38.7791 13.9572 39.6429 16.2666C40.5068 18.576 40.9387 20.7278 40.9387 22.722C40.9387 25.3661 40.4104 27.836 39.354 30.1318C38.2975 32.4276 37.0183 34.2185 35.5163 35.5045C34.2964 32.0628 32.4112 28.7602 29.8605 25.5966C27.3079 22.4331 23.7377 19.4836 19.15 16.7481C22.5042 19.6626 25.3234 22.7639 27.6075 26.0519C29.8916 29.34 31.6339 33.2428 32.8343 37.7605Z" fill="#725C3F"/>
</svg>
