<svg width="28" height="31" viewBox="0 0 28 31" fill="none" xmlns="http://www.w3.org/2000/svg">
<path d="M1 7.26788H26.0715M2.56697 7.26788L4.13394 26.0715C4.13394 26.9027 4.46412 27.6998 5.05185 28.2876C5.63958 28.8753 6.43671 29.2055 7.26788 29.2055H19.8036C20.6348 29.2055 21.432 28.8753 22.0197 28.2876C22.6074 27.6998 22.9376 26.9027 22.9376 26.0715L24.5046 7.26788M8.83485 7.26788V2.56697C8.83485 2.15138 8.99995 1.75282 9.29381 1.45896C9.58767 1.16509 9.98624 1 10.4018 1H16.6697C17.0853 1 17.4839 1.16509 17.7777 1.45896C18.0716 1.75282 18.2367 2.15138 18.2367 2.56697V7.26788M10.4018 15.1027L16.6697 21.3706M16.6697 15.1027L10.4018 21.3706" stroke="#725C3F" stroke-width="2" stroke-linecap="round" stroke-linejoin="round"/>
</svg>
