<svg width="50" height="45" viewBox="0 0 50 45" fill="none" xmlns="http://www.w3.org/2000/svg">
<path d="M4.86933 32.9308C4.17898 32.9308 3.61933 33.4904 3.61933 34.1808C3.61933 34.8711 4.17898 35.4308 4.86933 35.4308V34.1808V32.9308ZM22.5389 35.4308C23.2293 35.4308 23.7889 34.8711 23.7889 34.1808C23.7889 33.4904 23.2293 32.9308 22.5389 32.9308V34.1808V35.4308ZM40.2085 32.9308C39.5181 32.9308 38.9585 33.4904 38.9585 34.1808C38.9585 34.8711 39.5181 35.4308 40.2085 35.4308V34.1808V32.9308ZM46.0983 35.4308C46.7887 35.4308 47.3483 34.8711 47.3483 34.1808C47.3483 33.4904 46.7887 32.9308 46.0983 32.9308V34.1808V35.4308ZM32.2132 2.46292C32.8829 2.29549 33.2901 1.61682 33.1227 0.947075C32.9552 0.277331 32.2766 -0.12987 31.6068 0.0375661L31.91 1.25024L32.2132 2.46292ZM20.5582 14.2158C21.204 13.9717 21.5296 13.2503 21.2855 12.6046C21.0414 11.9588 20.32 11.6332 19.6743 11.8773L20.1162 13.0465L20.5582 14.2158ZM1.33407 22.5281L0.211253 23.0775C0.335889 23.3322 0.54345 23.537 0.79985 23.6582L1.33407 22.5281ZM23.2917 23.8336L23.2453 22.5845L23.2447 22.5845L23.2917 23.8336ZM28.6241 27.3078L27.406 27.5884L27.406 27.5887L28.6241 27.3078ZM29.8707 31.3676L28.904 32.1601L28.9056 32.162L29.8707 31.3676ZM31.7125 31.9063L32.0257 33.1164L32.0306 33.1151L31.7125 31.9063ZM35.1231 25.9318L36.3352 26.2374L36.3353 26.2369L35.1231 25.9318ZM36.2004 24.2852L36.6083 25.4668L36.6109 25.4659L36.2004 24.2852ZM48.2906 21.345H49.5406C49.5406 21.3308 49.5404 21.3166 49.5399 21.3025L48.2906 21.345ZM41.4693 10.2474L40.6895 11.2243L40.6927 11.2269L41.4693 10.2474ZM35.6924 8.47388L35.595 7.22767L35.5927 7.22786L35.6924 8.47388ZM31.0399 8.54314C30.517 8.99382 30.4584 9.78311 30.9091 10.3061C31.3598 10.829 32.149 10.8876 32.672 10.4369L31.856 9.49002L31.0399 8.54314ZM2.49886 22.1271C2.34622 21.4539 1.67669 21.0318 1.00342 21.1845C0.33015 21.3371 -0.0919048 22.0066 0.0607344 22.6799L1.2798 22.4035L2.49886 22.1271ZM3.57553 32.5297L4.79599 32.2595L4.79459 32.2533L3.57553 32.5297ZM7.2708 42.0372L6.48748 43.0113L6.48877 43.0123L7.2708 42.0372ZM44.948 42.3712L44.1089 41.4446L44.1081 41.4454L44.948 42.3712ZM46.8909 35.1029L45.6474 34.9755L45.647 34.9796L46.8909 35.1029ZM49.5222 21.6865C49.5926 20.9997 49.0929 20.386 48.4061 20.3156C47.7194 20.2452 47.1056 20.7449 47.0352 21.4317L48.2787 21.5591L49.5222 21.6865ZM4.86933 34.1808V35.4308H22.5389V34.1808V32.9308H4.86933V34.1808ZM40.2085 34.1808V35.4308H46.0983V34.1808V32.9308H40.2085V34.1808ZM26.0295 5.9546V7.2046C27.2576 7.2046 28.4354 7.69245 29.3038 8.56083L30.1876 7.67695L31.0715 6.79306C29.7343 5.45585 27.9207 4.7046 26.0295 4.7046V5.9546ZM30.1876 7.67695L29.3038 8.56083C30.1721 9.42921 30.66 10.607 30.66 11.8351H31.91H33.16C33.16 9.94394 32.4088 8.13028 31.0715 6.79306L30.1876 7.67695ZM31.91 11.8351H30.66C30.66 13.0631 30.1721 14.2409 29.3038 15.1093L30.1876 15.9932L31.0715 16.877C32.4088 15.5398 33.16 13.7262 33.16 11.8351H31.91ZM30.1876 15.9932L29.3038 15.1093C28.4354 15.9777 27.2576 16.4655 26.0295 16.4655V17.7155V18.9655C27.9207 18.9655 29.7343 18.2143 31.0715 16.877L30.1876 15.9932ZM26.0295 17.7155V16.4655C24.8015 16.4655 23.6237 15.9777 22.7553 15.1093L21.8714 15.9932L20.9876 16.877C22.3248 18.2143 24.1384 18.9655 26.0295 18.9655V17.7155ZM21.8714 15.9932L22.7553 15.1093C21.8869 14.2409 21.3991 13.0631 21.3991 11.8351H20.1491H18.8991C18.8991 13.7262 19.6503 15.5398 20.9876 16.877L21.8714 15.9932ZM20.1491 11.8351H21.3991C21.3991 10.607 21.8869 9.42921 22.7553 8.56083L21.8714 7.67695L20.9876 6.79306C19.6503 8.13028 18.8991 9.94394 18.8991 11.8351H20.1491ZM21.8714 7.67695L22.7553 8.56083C23.6237 7.69245 24.8015 7.2046 26.0295 7.2046V5.9546V4.7046C24.1384 4.7046 22.3248 5.45585 20.9876 6.79306L21.8714 7.67695ZM26.0295 5.9546L27.2152 6.3506C27.4835 5.54722 28.8961 3.29218 32.2132 2.46292L31.91 1.25024L31.6068 0.0375661C27.3969 1.09005 25.3612 4.00981 24.8439 5.55861L26.0295 5.9546ZM20.1162 13.0465L19.6743 11.8773C12.6898 14.5173 7.72264 16.4708 4.60743 17.9915C3.06629 18.7439 1.87199 19.4397 1.10897 20.118C0.727348 20.4573 0.365785 20.8677 0.163733 21.3634C-0.0604708 21.9135 -0.0634656 22.516 0.211253 23.0775L1.33407 22.5281L2.4569 21.9788C2.51757 22.1028 2.50362 22.2462 2.4788 22.3071C2.47613 22.3136 2.52429 22.2049 2.76997 21.9865C3.26153 21.5495 4.19214 20.9762 5.70412 20.2381C8.69518 18.778 13.5472 16.8658 20.5582 14.2158L20.1162 13.0465ZM1.33407 22.5281L0.79985 23.6582C3.3827 24.8792 6.91342 25.2868 10.7478 25.3796C14.6116 25.4732 18.994 25.2462 23.3387 25.0827L23.2917 23.8336L23.2447 22.5845C18.8393 22.7503 14.5715 22.9715 10.8083 22.8803C7.01579 22.7885 3.94277 22.3787 1.8683 21.3981L1.33407 22.5281ZM23.2917 23.8336L23.338 25.0827C25.3984 25.0063 27.0443 26.0184 27.406 27.5884L28.6241 27.3078L29.8422 27.0271C29.1124 23.8598 26.0023 22.4822 23.2453 22.5845L23.2917 23.8336ZM28.6241 27.3078L27.406 27.5887C27.4969 27.9827 27.5716 28.3665 27.648 28.7572C27.7227 29.1393 27.8006 29.536 27.8928 29.9138C28.074 30.656 28.3429 31.4757 28.904 32.1601L29.8707 31.3676L30.8374 30.5752C30.6388 30.3329 30.4772 29.9588 30.3215 29.3209C30.2452 29.0086 30.178 28.6686 30.1015 28.2775C30.0267 27.895 29.9441 27.469 29.8421 27.0268L28.6241 27.3078ZM29.8707 31.3676L28.9056 32.162C29.7048 33.1331 30.9777 33.3877 32.0257 33.1164L31.7125 31.9063L31.3992 30.6962C31.1206 30.7683 30.9116 30.6653 30.8359 30.5733L29.8707 31.3676ZM31.7125 31.9063L32.0306 33.1151C33.3794 32.7602 34.2479 31.8211 34.8653 30.6349C35.4601 29.4923 35.8952 27.9822 36.3352 26.2374L35.1231 25.9318L33.9111 25.6261C33.4666 27.3884 33.0903 28.6304 32.6477 29.4806C32.2279 30.2873 31.8332 30.582 31.3944 30.6974L31.7125 31.9063ZM35.1231 25.9318L36.3353 26.2369C36.4181 25.9079 36.4908 25.6899 36.5714 25.5447C36.6405 25.42 36.6591 25.4493 36.6083 25.4668L36.2004 24.2852L35.7926 23.1036C35.0808 23.3493 34.6466 23.8608 34.3853 24.3318C34.1354 24.7823 33.9999 25.2734 33.9109 25.6266L35.1231 25.9318ZM36.2004 24.2852L36.6109 25.4659C37.1193 25.2892 38.032 25.2263 39.3373 25.229C40.5367 25.2314 42.0489 25.2882 43.3964 25.2456C44.7409 25.2031 46.1805 25.0619 47.3156 24.5697C47.9015 24.3157 48.4703 23.9415 48.8922 23.3798C49.3258 22.8025 49.5406 22.1109 49.5406 21.345H48.2906H47.0406C47.0406 21.6241 46.9702 21.7759 46.8932 21.8785C46.8044 21.9967 46.637 22.139 46.321 22.2761C45.6523 22.566 44.625 22.7055 43.3175 22.7468C42.0129 22.788 40.6878 22.7317 39.3424 22.729C38.1029 22.7264 36.7634 22.7661 35.79 23.1045L36.2004 24.2852ZM48.2906 21.345L49.5399 21.3025C49.4603 18.964 48.9869 16.9767 47.8 15.0272C46.6354 13.1141 44.8323 11.3186 42.2459 9.26794L41.4693 10.2474L40.6927 11.2269C43.1941 13.2102 44.7275 14.7878 45.6646 16.3271C46.5794 17.8299 46.9728 19.3745 47.0414 21.3875L48.2906 21.345ZM41.4693 10.2474L42.2491 9.2705C40.3703 7.77068 37.9918 7.0405 35.595 7.22767L35.6924 8.47388L35.7897 9.72008C37.5546 9.58226 39.306 10.1199 40.6895 11.2243L41.4693 10.2474ZM35.6924 8.47388L35.5927 7.22786C33.4328 7.40065 32.0284 7.69124 31.0399 8.54314L31.856 9.49002L32.672 10.4369C32.9772 10.1739 33.6004 9.89523 35.792 9.71989L35.6924 8.47388ZM1.2798 22.4035L0.0607344 22.6799L2.35646 32.806L3.57553 32.5297L4.79459 32.2533L2.49886 22.1271L1.2798 22.4035ZM3.57553 32.5297L2.35508 32.7998C2.93528 35.4207 3.39284 37.496 3.95928 39.1039C4.537 40.7438 5.27189 42.0338 6.48748 43.0113L7.2708 42.0372L8.05412 41.063C7.33622 40.4858 6.81034 39.6729 6.31723 38.2732C5.81284 36.8415 5.38951 34.9405 4.79598 32.2595L3.57553 32.5297ZM7.2708 42.0372L6.48877 43.0123C7.70598 43.9885 9.12425 44.427 10.8502 44.6364C12.5424 44.8417 14.6676 44.8396 17.3522 44.8396V43.5896V42.3396C14.6057 42.3396 12.6581 42.3375 11.1513 42.1546C9.67833 41.9759 8.77147 41.6383 8.05282 41.062L7.2708 42.0372ZM17.3522 43.5896V44.8396H37.5269V43.5896V42.3396H17.3522V43.5896ZM37.5269 43.5896V44.8396C39.5198 44.8396 41.1342 44.842 42.4135 44.677C43.7282 44.5075 44.8541 44.1441 45.7879 43.297L44.948 42.3712L44.1081 41.4454C43.6989 41.8167 43.1406 42.0625 42.0937 42.1976C41.0114 42.3372 39.5868 42.3396 37.5269 42.3396V43.5896ZM44.948 42.3712L45.7871 43.2977C46.7222 42.4508 47.1942 41.3657 47.4921 40.0737C47.7819 38.8167 47.9382 37.2096 48.1348 35.2262L46.8909 35.1029L45.647 34.9796C45.4437 37.0303 45.3013 38.4481 45.056 39.5121C44.8188 40.5411 44.5192 41.0731 44.1089 41.4446L44.948 42.3712ZM46.8909 35.1029L48.1344 35.2304L49.5222 21.6865L48.2787 21.5591L47.0352 21.4317L45.6474 34.9755L46.8909 35.1029Z" fill="#725C3F"/>
</svg>
