<svg width="35" height="50" viewBox="0 0 35 50" fill="none" xmlns="http://www.w3.org/2000/svg">
<path d="M30.5126 21.0945L26.7865 45.675C26.6878 46.3281 26.3581 46.9242 25.8571 47.3547C25.3561 47.7852 24.7173 48.0217 24.0567 48.021H10C9.33949 48.0217 8.70063 47.7852 8.19967 47.3547C7.6987 46.9242 7.36891 46.3281 7.27029 45.675L3.67383 21.0945M16.6514 16.9389L17.3351 13.9283C18.4357 9.77396 19.9696 7.81306 23.9638 5.293L30.7018 1.00012L33.0553 4.57116L25.8408 9.22241C24.0785 10.3582 22.6997 11.9991 21.8847 13.9309L21.1667 16.9402M20.0077 8.45991L23.2928 11.5404M22.5049 6.269L24.8305 9.96077M18.2273 11.2862L22.2469 13.1595M15.9753 21.0945L14.3614 35.3558M20.3419 21.0945L18.5132 35.4524M33.086 19.1946C33.0843 18.5965 32.8458 18.0233 32.4226 17.6005C31.9993 17.1778 31.4259 16.9399 30.8277 16.9389H3.25827C2.66009 16.9399 2.08666 17.1778 1.66344 17.6005C1.24022 18.0233 1.00168 18.5965 1 19.1946V21.0945H33.086V19.1946ZM9.60085 43.3201C9.60085 45.7182 13.1998 45.7182 13.1998 43.3201C13.1998 40.9221 9.60085 40.9221 9.60085 43.3201ZM18.8805 44.0712C18.8805 46.4693 22.4795 46.4693 22.4795 44.0712C22.4795 41.6731 18.8805 41.6731 18.8805 44.0712ZM8.76464 35.6634C8.76464 38.0614 12.3636 38.0614 12.3636 35.6634C12.3636 33.2653 8.76464 33.2653 8.76464 35.6634ZM21.7144 32.7519C21.7144 35.15 25.3147 35.15 25.3147 32.7519C25.3147 30.3538 21.7144 30.3538 21.7144 32.7519ZM6.96514 30.0742C6.96514 32.4723 10.5641 32.4723 10.5641 30.0742C10.5641 27.6762 6.96514 27.6762 6.96514 30.0742ZM14.6372 40.0122C14.6372 42.409 18.2374 42.409 18.2374 40.0122C18.2374 37.6154 14.6372 37.6128 14.6372 40.0122ZM21.7144 38.5736C21.7144 40.9704 25.3147 40.9704 25.3147 38.5736C25.3147 36.1768 21.7144 36.1743 21.7144 38.5736Z" stroke="#725C3F" stroke-width="2" stroke-linecap="round" stroke-linejoin="round"/>
</svg>
