<svg width="39" height="35" viewBox="0 0 39 35" fill="none" xmlns="http://www.w3.org/2000/svg">
<path d="M38.5893 0.219186C38.465 0.1118 38.3138 0.0404382 38.1519 0.0128226C37.99 -0.014793 37.8237 0.00238957 37.6708 0.0625109L1.17449 14.3452C0.802438 14.4896 0.487411 14.751 0.27689 15.0901C0.0663682 15.4291 -0.0282402 15.8274 0.00732414 16.225C0.0428885 16.6225 0.206698 16.9976 0.474064 17.2939C0.741429 17.5902 1.09786 17.7916 1.48964 17.8677L11.5277 19.8378V30.9744C11.5276 31.4052 11.6563 31.8263 11.8973 32.1834C12.1383 32.5406 12.4806 32.8175 12.8801 32.9788C13.1372 33.0819 13.4117 33.1351 13.6887 33.1354C13.9787 33.1348 14.2656 33.0757 14.5323 32.9619C14.799 32.848 15.04 32.6817 15.2411 32.4727L20.2835 27.2502L28.0272 34.0413C28.4198 34.3875 28.9247 34.5795 29.4481 34.5815C29.6767 34.5805 29.9038 34.5447 30.1216 34.4753C30.4781 34.3624 30.7988 34.158 31.0516 33.8824C31.3044 33.6069 31.4805 33.2698 31.5623 32.9049L38.8774 1.10161C38.9141 0.942225 38.9066 0.77587 38.8558 0.620406C38.8051 0.464942 38.7129 0.326239 38.5893 0.219186ZM1.44282 16.0956C1.43225 16.0085 1.45188 15.9204 1.49841 15.846C1.54495 15.7716 1.61559 15.7154 1.69854 15.6868L33.1507 3.37791L12.0805 18.4782L1.76877 16.454C1.68137 16.4412 1.60111 16.3985 1.54168 16.3331C1.48224 16.2678 1.4473 16.1838 1.44282 16.0956ZM14.2056 31.4714C14.106 31.574 13.9781 31.6446 13.8382 31.6743C13.6984 31.704 13.5528 31.6914 13.4202 31.6381C13.2875 31.5848 13.1737 31.4932 13.0932 31.375C13.0128 31.2568 12.9693 31.1174 12.9684 30.9744V20.8355L19.1958 26.2921L14.2056 31.4714ZM30.1576 32.5772C30.1298 32.6994 30.0705 32.8123 29.9856 32.9047C29.9007 32.997 29.7932 33.0656 29.6737 33.1036C29.5541 33.1416 29.4268 33.1478 29.3041 33.1215C29.1815 33.0951 29.0679 33.0373 28.9745 32.9535L13.406 19.3012L37.1234 2.30459L30.1576 32.5772Z" fill="#93A100"/>
</svg>
