<svg width="39" height="48" viewBox="0 0 39 48" fill="none" xmlns="http://www.w3.org/2000/svg">
<path d="M37.5 19.5C37.5 30.7342 25.0372 42.4342 20.8522 46.0477C20.4624 46.3409 19.9878 46.4994 19.5 46.4994C19.0122 46.4994 18.5376 46.3409 18.1477 46.0477C13.9627 42.4342 1.5 30.7342 1.5 19.5C1.5 14.7261 3.39642 10.1477 6.77207 6.77207C10.1477 3.39642 14.7261 1.5 19.5 1.5C24.2739 1.5 28.8522 3.39642 32.2279 6.77207C35.6035 10.1477 37.5 14.7261 37.5 19.5Z" stroke="#725C3E" stroke-width="3" stroke-linecap="round" stroke-linejoin="round"/>
<path d="M19.5 26.25C23.2279 26.25 26.25 23.2279 26.25 19.5C26.25 15.7721 23.2279 12.75 19.5 12.75C15.7721 12.75 12.75 15.7721 12.75 19.5C12.75 23.2279 15.7721 26.25 19.5 26.25Z" stroke="#725C3E" stroke-width="3" stroke-linecap="round" stroke-linejoin="round"/>
</svg>
