<svg width="33" height="33" viewBox="0 0 33 33" fill="none" xmlns="http://www.w3.org/2000/svg">
<path d="M27.8819 32.4159H4.53394C3.33147 32.4159 2.17824 31.9382 1.32796 31.0879C0.477682 30.2376 0 29.0844 0 27.8819V4.53394C0 3.33147 0.477682 2.17824 1.32796 1.32796C2.17824 0.477682 3.33147 0 4.53394 0H27.8819C29.0844 0 30.2376 0.477682 31.0879 1.32796C31.9382 2.17824 32.4159 3.33147 32.4159 4.53394V27.8819C32.4159 29.0844 31.9382 30.2376 31.0879 31.0879C30.2376 31.9382 29.0844 32.4159 27.8819 32.4159ZM4.53394 1.81358C3.81246 1.81358 3.12052 2.10019 2.61035 2.61035C2.10019 3.12052 1.81358 3.81246 1.81358 4.53394V27.8819C1.81358 28.6034 2.10019 29.2954 2.61035 29.8055C3.12052 30.3157 3.81246 30.6023 4.53394 30.6023H27.8819C28.6034 30.6023 29.2954 30.3157 29.8055 29.8055C30.3157 29.2954 30.6023 28.6034 30.6023 27.8819V4.53394C30.6023 3.81246 30.3157 3.12052 29.8055 2.61035C29.2954 2.10019 28.6034 1.81358 27.8819 1.81358H4.53394Z" fill="#93A100"/>
<path d="M16.2079 24.5395C14.5601 24.5377 12.9497 24.0474 11.5805 23.1305C10.2112 22.2137 9.14449 20.9115 8.5152 19.3885C7.88591 17.8655 7.72228 16.1901 8.045 14.5741C8.36771 12.9582 9.16228 11.4741 10.3283 10.3097C11.4943 9.14522 12.9793 8.35258 14.5957 8.03198C16.2121 7.71137 17.8872 7.87719 19.4094 8.50846C20.9316 9.13974 22.2324 10.2081 23.1475 11.5786C24.0626 12.9491 24.5508 14.5601 24.5504 16.2079C24.5475 18.4186 23.6673 20.5377 22.1031 22.0999C20.5389 23.6621 18.4186 24.5395 16.2079 24.5395ZM16.2079 9.67905C14.9192 9.68085 13.6599 10.0645 12.5892 10.7816C11.5184 11.4987 10.6841 12.5171 10.1918 13.708C9.69943 14.899 9.57108 16.2092 9.82293 17.473C10.0748 18.7369 10.6956 19.8978 11.6068 20.8091C12.5181 21.7203 13.679 22.3411 14.9428 22.5929C16.2067 22.8448 17.5169 22.7165 18.7079 22.2241C19.8988 21.7318 20.9172 20.8975 21.6343 19.8267C22.3514 18.7559 22.735 17.4967 22.7368 16.2079C22.7368 14.4764 22.049 12.8157 20.8246 11.5913C19.6002 10.3669 17.9395 9.67905 16.2079 9.67905Z" fill="#93A100"/>
<path d="M25.6386 8.78134C26.7153 8.78134 27.5882 7.90848 27.5882 6.83175C27.5882 5.75502 26.7153 4.88215 25.6386 4.88215C24.5618 4.88215 23.689 5.75502 23.689 6.83175C23.689 7.90848 24.5618 8.78134 25.6386 8.78134Z" fill="#93A100"/>
</svg>
