<svg width="29" height="29" viewBox="0 0 29 29" fill="none" xmlns="http://www.w3.org/2000/svg">
<path d="M14.5502 8.49785H14.4007M14.4754 20.4726V15.9819M1.18301 16.6859C1.53207 18.7789 2.37059 20.7599 3.63027 22.4674C4.88995 24.175 6.53517 25.5608 8.43192 26.5121C10.3287 27.4634 12.4233 27.9532 14.5452 27.9416C16.6671 27.93 18.7562 27.4174 20.6425 26.4454L25.7173 27.493C25.9598 27.5426 26.2108 27.5312 26.4478 27.46C26.6848 27.3888 26.9004 27.26 27.0754 27.085C27.2504 26.91 27.3793 26.6943 27.4505 26.4573C27.5217 26.2203 27.533 25.9694 27.4834 25.7269L26.4509 20.637C27.4269 18.7405 27.9387 16.6394 27.9442 14.5066C27.9496 12.3737 27.4486 10.27 26.4823 8.36861C25.516 6.46719 24.1121 4.82236 22.386 3.56946C20.6599 2.31655 18.661 1.49137 16.5538 1.1618C14.4465 0.832236 12.2912 1.0077 10.265 1.67377C8.23876 2.33983 6.39966 3.47745 4.89897 4.99305C3.39827 6.50864 2.27886 8.35888 1.63284 10.3916C0.98682 12.4242 0.832648 14.582 1.18301 16.6859Z" stroke="#725C3F" stroke-width="2" stroke-linecap="round" stroke-linejoin="round"/>
</svg>
