<svg width="34" height="45" viewBox="0 0 34 45" fill="none" xmlns="http://www.w3.org/2000/svg">
<path d="M0 5.55231V38.8661C0 40.3387 0.584973 41.751 1.62623 42.7922C2.66749 43.8335 4.07974 44.4185 5.55231 44.4185H31.9258C32.2939 44.4185 32.647 44.2722 32.9073 44.0119C33.1676 43.7516 33.3138 43.3985 33.3138 43.0304C33.3138 42.6622 33.1676 42.3092 32.9073 42.0489C32.647 41.7885 32.2939 41.6423 31.9258 41.6423H5.55231C4.81603 41.6423 4.1099 41.3498 3.58927 40.8292C3.06864 40.3086 2.77615 39.6024 2.77615 38.8661H30.5377C31.274 38.8661 31.9801 38.5737 32.5007 38.053C33.0214 37.5324 33.3138 36.8263 33.3138 36.09V5.55231C33.3138 4.07974 32.7289 2.66749 31.6876 1.62623C30.6463 0.584973 29.2341 0 27.7615 0H5.55231C4.07974 0 2.66749 0.584973 1.62623 1.62623C0.584973 2.66749 0 4.07974 0 5.55231ZM27.7615 2.77615C28.4978 2.77615 29.2039 3.06864 29.7246 3.58927C30.2452 4.1099 30.5377 4.81603 30.5377 5.55231V36.09H2.77615V5.55231C2.77615 4.81603 3.06864 4.1099 3.58927 3.58927C4.1099 3.06864 4.81603 2.77615 5.55231 2.77615H27.7615ZM18.739 10.4106C18.739 9.85837 18.5197 9.32877 18.1292 8.9383C17.7387 8.54783 17.2091 8.32846 16.6569 8.32846C16.1047 8.32846 15.5751 8.54783 15.1846 8.9383C14.7942 9.32877 14.5748 9.85837 14.5748 10.4106C14.5748 10.9628 14.7942 11.4924 15.1846 11.8829C15.5751 12.2733 16.1047 12.4927 16.6569 12.4927C17.2091 12.4927 17.7387 12.2733 18.1292 11.8829C18.5197 11.4924 18.739 10.9628 18.739 10.4106ZM18.045 29.1496C18.045 29.5178 17.8988 29.8708 17.6384 30.1311C17.3781 30.3914 17.0251 30.5377 16.6569 30.5377C16.2888 30.5377 15.9357 30.3914 15.6754 30.1311C15.4151 29.8708 15.2688 29.5178 15.2688 29.1496V18.045C15.2688 17.6769 15.4151 17.3238 15.6754 17.0635C15.9357 16.8032 16.2888 16.6569 16.6569 16.6569C17.0251 16.6569 17.3781 16.8032 17.6384 17.0635C17.8988 17.3238 18.045 17.6769 18.045 18.045V29.1496Z" fill="#725C3F"/>
</svg>
