<svg width="39" height="45" viewBox="0 0 39 45" fill="none" xmlns="http://www.w3.org/2000/svg">
<path d="M6.64902 45C5.51882 45 4.55214 44.6042 3.74898 43.8125C2.94581 43.0208 2.54338 42.0717 2.54168 40.965V35.575H1.27085C0.909934 35.575 0.608323 35.455 0.366018 35.215C0.122018 34.9767 1.74087e-05 34.68 1.74087e-05 34.325C1.74087e-05 33.97 0.122018 33.6733 0.366018 33.435C0.610018 33.1967 0.911628 33.0775 1.27085 33.0775H2.54168V23.75H1.27085C0.909934 23.75 0.608323 23.63 0.366018 23.39C0.123712 23.15 0.00171185 22.8525 1.74087e-05 22.4975C-0.00167704 22.1425 0.120323 21.8458 0.366018 21.6075C0.611712 21.3692 0.913323 21.25 1.27085 21.25H2.54168V11.925H1.27085C0.909934 11.925 0.608323 11.8042 0.366018 11.5625C0.123712 11.3208 0.00171185 11.025 1.74087e-05 10.675C-0.00167704 10.325 0.120323 10.0283 0.366018 9.785C0.611712 9.54167 0.913323 9.42167 1.27085 9.425H2.54168V4.04C2.54168 2.92833 2.94411 1.9775 3.74898 1.1875C4.55384 0.3975 5.51967 0.00166667 6.64647 0H34.0202C35.1487 0 36.1146 0.395833 36.9177 1.1875C37.7209 1.97917 38.1233 2.92917 38.125 4.0375V40.9625C38.125 42.0725 37.7226 43.0225 36.9177 43.8125C36.1129 44.6025 35.147 44.9983 34.0202 45H6.64902ZM6.64902 42.5H34.0202C34.476 42.5 34.8505 42.3558 35.1436 42.0675C35.4368 41.7792 35.5833 41.4108 35.5833 40.9625V4.0375C35.5833 3.58917 35.4368 3.22083 35.1436 2.9325C34.8505 2.64417 34.476 2.5 34.0202 2.5H6.64647C6.19067 2.5 5.8162 2.64417 5.52306 2.9325C5.22992 3.22083 5.08335 3.59 5.08335 4.04V9.4225H6.35418C6.7151 9.4225 7.01671 9.5425 7.25902 9.7825C7.50302 10.0225 7.62502 10.32 7.62502 10.675C7.62502 11.03 7.50302 11.3267 7.25902 11.565C7.01502 11.8033 6.71341 11.9225 6.35418 11.9225H5.08335V21.25H6.35418C6.7151 21.25 7.01671 21.37 7.25902 21.61C7.50132 21.85 7.62332 22.1475 7.62502 22.5025C7.62671 22.8575 7.50471 23.1542 7.25902 23.3925C7.01332 23.6308 6.71171 23.75 6.35418 23.75H5.08335V33.075H6.35418C6.7151 33.075 7.01671 33.1958 7.25902 33.4375C7.50132 33.6792 7.62332 33.975 7.62502 34.325C7.62671 34.675 7.50471 34.9717 7.25902 35.215C7.01332 35.4583 6.71171 35.5783 6.35418 35.575H5.08335V40.9575C5.08335 41.4075 5.22992 41.7767 5.52306 42.065C5.8162 42.3533 6.19152 42.5 6.64902 42.5ZM15.738 24.275V33.1225C15.738 33.4425 15.8439 33.7067 16.0557 33.915C16.2692 34.1233 16.5378 34.2275 16.8614 34.2275C17.1851 34.2275 17.4536 34.1233 17.6671 33.915C17.8806 33.7067 17.9874 33.4425 17.9874 33.1225V24.2775C18.9905 24.0492 19.8445 23.5592 20.5494 22.8075C21.2526 22.0558 21.6042 21.1817 21.6042 20.185V11.73C21.6042 11.475 21.5068 11.2508 21.3119 11.0575C21.1153 10.8658 20.8866 10.77 20.6256 10.77C20.3647 10.77 20.1368 10.8658 19.9419 11.0575C19.7471 11.2492 19.6496 11.4742 19.6496 11.7325V20.015H17.84V11.73C17.84 11.475 17.7425 11.2508 17.5477 11.0575C17.3528 10.8658 17.1241 10.77 16.8614 10.77C16.6022 10.77 16.3751 10.8658 16.1803 11.0575C15.9837 11.2508 15.8854 11.4758 15.8854 11.7325V20.015H14.0783V11.73C14.0783 11.475 13.98 11.2508 13.7835 11.0575C13.5886 10.8658 13.3599 10.77 13.0972 10.77C12.838 10.77 12.6109 10.8658 12.4161 11.0575C12.2195 11.2508 12.1212 11.4758 12.1212 11.7325V20.1875C12.1212 21.1842 12.4737 22.0583 13.1786 22.81C13.8818 23.5617 14.7349 24.0517 15.738 24.28M27.5669 24.23V33.125C27.5669 33.445 27.6728 33.7092 27.8846 33.9175C28.0964 34.1258 28.365 34.23 28.6903 34.23C29.0157 34.23 29.2843 34.1258 29.4961 33.9175C29.7079 33.7092 29.8146 33.445 29.8163 33.125V11.87C29.8163 11.52 29.6977 11.2492 29.4605 11.0575C29.2249 10.8658 28.9183 10.77 28.5404 10.77C28.0863 10.77 27.5881 10.9 27.0459 11.16C26.5037 11.42 25.9852 11.825 25.4904 12.375C24.9278 12.975 24.4983 13.6542 24.2018 14.4125C23.9035 15.1692 23.7544 15.9883 23.7544 16.87V22.2125C23.7544 22.7842 23.951 23.2633 24.3441 23.65C24.7389 24.0367 25.2269 24.23 25.8081 24.23H27.5669Z" fill="#725C3F"/>
</svg>
