<svg width="51" height="49" viewBox="0 0 51 49" fill="none" xmlns="http://www.w3.org/2000/svg">
<path d="M16.5398 19.5L16.6931 19.5078C17.4494 19.5847 18.0398 20.2234 18.0398 21C18.0398 21.7766 17.4494 22.4153 16.6931 22.4922L16.5398 22.5H16.5193C15.6908 22.5 15.0193 21.8284 15.0193 21C15.0193 20.1716 15.6908 19.5 16.5193 19.5H16.5398ZM25.5281 19.5C26.3565 19.5 27.0281 20.1716 27.0281 21C27.0281 21.8284 26.3565 22.5 25.5281 22.5H25.5105C24.682 22.5 24.0105 21.8284 24.0105 21C24.0105 20.1716 24.682 19.5 25.5105 19.5H25.5281ZM34.5193 19.5C35.3477 19.5 36.0193 20.1716 36.0193 21C36.0193 21.8284 35.3477 22.5 34.5193 22.5H34.4988C33.6704 22.4999 32.9988 21.8283 32.9988 21C32.9988 20.1717 33.6704 19.5001 34.4988 19.5H34.5193Z" stroke="#725C3F" stroke-width="3" stroke-linecap="round" stroke-linejoin="round"/>
<path d="M25.498 1.50098C28.7033 1.49939 31.9089 1.56477 35.1113 1.69922H35.1123C37.8111 1.81535 40.0077 1.90581 41.7939 2.2666C43.6579 2.64311 45.1805 3.33096 46.5215 4.68164L46.7646 4.93652C49.1933 7.58584 49.2341 10.9056 49.4082 15.8838L49.4473 17.1348C49.4812 18.3958 49.499 19.6871 49.499 21C49.499 22.7506 49.4673 24.4628 49.4082 26.1162C49.2285 31.2547 49.1911 34.6273 46.5215 37.3164C45.1797 38.6679 43.6571 39.3565 41.793 39.7334C40.2066 40.0541 38.297 40.1595 35.999 40.2607V44.1064L35.9912 44.3311C35.9542 44.8534 35.7874 45.3597 35.5039 45.8027C35.1799 46.3092 34.7169 46.7114 34.1709 46.9629C33.6248 47.2144 33.0183 47.3046 32.4229 47.2217C31.8274 47.1387 31.2681 46.8863 30.8115 46.4951L30.8105 46.4941L25.9082 42.2871C24.5991 41.1643 24.2005 40.8536 23.7646 40.6865C23.336 40.5222 22.8209 40.4927 21.04 40.459H21.0391C19.7113 40.4329 18.4131 40.397 17.1445 40.3506L15.8857 40.3008C13.187 40.1846 10.9903 40.0942 9.2041 39.7334C7.4567 39.3804 6.00942 38.7543 4.73047 37.5645L4.47656 37.3184C2.14093 34.9634 1.82035 32.0872 1.65625 27.9619L1.58984 26.1152C1.46992 22.7061 1.46992 19.2939 1.58984 15.8848C1.76959 10.7457 1.80676 7.37291 4.47656 4.68359C5.81832 3.33211 7.34093 2.64351 9.20508 2.2666C10.991 1.90555 13.1866 1.81631 15.8848 1.7002C18.9205 1.5687 22.1484 1.50099 25.498 1.50098Z" stroke="#725C3F" stroke-width="3" stroke-linecap="round" stroke-linejoin="round"/>
</svg>
