<svg width="39" height="28" viewBox="0 0 39 28" fill="none" xmlns="http://www.w3.org/2000/svg">
<path d="M23.6667 15.875L19.0833 11.2917L14.5 15.875M8.08333 0.75H30.0833C32.0283 0.75 33.8935 1.52262 35.2688 2.89788C36.6441 4.27315 37.4167 6.13841 37.4167 8.08333V19.0833C37.4167 21.0283 36.6441 22.8935 35.2688 24.2688C33.8935 25.644 32.0283 26.4167 30.0833 26.4167H8.08333C6.13841 26.4167 4.27315 25.644 2.89788 24.2688C1.52262 22.8935 0.75 21.0283 0.75 19.0833V8.08333C0.75 6.13841 1.52262 4.27315 2.89788 2.89788C4.27315 1.52262 6.13841 0.75 8.08333 0.75Z" stroke="#725C3F" stroke-width="1.5" stroke-linecap="round" stroke-linejoin="round"/>
</svg>
